# xmcd CD database file
#
# Track frame offsets:
#	150
#	1104
#	1701
#	3142
#	4220
#	5691
#	6776
#	7458
#	8173
#	8871
#	10982
#	13885
#	15577
#	17694
#	19235
#	20930
#	22647
#	24126
#	25759
#	27406
#	29004
#	30813
#	32353
#	34383
#	36541
#	38551
#	43694
#	44907
#	46609
#	48199
#	51259
#	52852
#	56587
#	58909
#	61048
#	65866
#	73138
#	86482
#	98905
#	108107
#	124840
#
# Disc length: 1825 seconds
#
# Revision: 0
# Processed by: cddbd v1.5.2PL0 Copyright (c) Steve Scherf et al.
# Submitted via: CDex 1.70beta2
#
DISCID=f3071f29
DTITLE=David Berkman - The Jazz Singer`s Guidebook
DYEAR=2009
DGENRE=Jazz
TTITLE0=01 - Chapter 3 - Example 1
TTITLE1=02 - Chapter 3 - Example 2
TTITLE2=03 - Chapter 3 - Example 3
TTITLE3=04 - Chapter 3 - Example 4
TTITLE4=05 - Chapter 3 - Example 5
TTITLE5=06 - Chapter 3 - Example 6
TTITLE6=07 - Chapter 4 - Example 7
TTITLE7=08 - Chapter 4 - Example 8
TTITLE8=09 - Chapter 4 - Example 9
TTITLE9=10 - Chapter 6 - Example 10
TTITLE10=11 - Chapter 6 - Example 11
TTITLE11=12 - Chapter 6 - Example 12
TTITLE12=13 - Chapter 6 - Example 13
TTITLE13=14 - Chapter 6 - Example 14
TTITLE14=15 - Chapter 7 - Example 15
TTITLE15=16 - Chapter 7 - Example 16
TTITLE16=17 - Chapter 7 - Example 17
TTITLE17=18 - Chapter 7 - Example 18
TTITLE18=19 - Chapter 7 - Example 19
TTITLE19=20 - Chapter 7 - Example 20
TTITLE20=21 - Chapter 7 - Example 21
TTITLE21=22 - Chapter 7 - Example 22
TTITLE22=23 - Chapter 7 - Example 23
TTITLE23=24 - Chapter 7 - Example 24
TTITLE24=25 - Chapter 7 - Example 25
TTITLE25=26 - Chapter 8 - Example 26
TTITLE26=27 - Chapter 8 - Example 27
TTITLE27=28 - Chapter 9 - Example 28
TTITLE28=29 - Chapter 9 - Example 29
TTITLE29=30 - Chapter 9 - Example 30
TTITLE30=31 - Chapter 9 - Example 31
TTITLE31=32 - Chapter 10 - Example 32
TTITLE32=33 - Chapter 10 - Example 33
TTITLE33=34 - Chapter 10 - Example 34
TTITLE34=35 - Chapter 11 - Example 35
TTITLE35=36 - Chapter 11 - Example 36
TTITLE36=37 - Chapter 11 - Example 37
TTITLE37=38 - Chapter 11 - Example 38
TTITLE38=39 - Chapter 11 - Example 39
TTITLE39=40 - Chapter 11 - Example 40
TTITLE40=41 - Chapter 11 - Example 41
EXTD=YEAR: 2009
EXTT0=
EXTT1=
EXTT2=
EXTT3=
EXTT4=
EXTT5=
EXTT6=
EXTT7=
EXTT8=
EXTT9=
EXTT10=
EXTT11=
EXTT12=
EXTT13=
EXTT14=
EXTT15=
EXTT16=
EXTT17=
EXTT18=
EXTT19=
EXTT20=
EXTT21=
EXTT22=
EXTT23=
EXTT24=
EXTT25=
EXTT26=
EXTT27=
EXTT28=
EXTT29=
EXTT30=
EXTT31=
EXTT32=
EXTT33=
EXTT34=
EXTT35=
EXTT36=
EXTT37=
EXTT38=
EXTT39=
EXTT40=
PLAYORDER=
